/* XPM */
static char *Pixmap[] = {
"21 21 256 3",
"000 c #190808",
"001 c #18100D",
"002 c #1C1512",
"003 c #1E352B",
"004 c #260708",
"005 c #260D10",
"006 c #241716",
"007 c #38070B",
"008 c #370E14",
"009 c #361819",
"010 c #23211D",
"011 c #282723",
"012 c #2A352E",
"013 c #342222",
"014 c #3D3534",
"015 c #2B4238",
"016 c #3A413B",
"017 c #40000E",
"018 c #460A11",
"019 c #4A110A",
"020 c #431518",
"021 c #540D13",
"022 c #561406",
"023 c #561518",
"024 c #501E21",
"025 c #4C2909",
"026 c #4F320A",
"027 c #4C381A",
"028 c #512F13",
"029 c #462829",
"030 c #423030",
"031 c #582628",
"032 c #562D31",
"033 c #56353A",
"034 c #671807",
"035 c #661617",
"036 c #74170B",
"037 c #751A17",
"038 c #601E20",
"039 c #77221F",
"040 c #682929",
"041 c #63322E",
"042 c #683437",
"043 c #772C26",
"044 c #763938",
"045 c #543E41",
"046 c #683D45",
"047 c #763D43",
"048 c #544529",
"049 c #674333",
"050 c #514446",
"051 c #5C4D50",
"052 c #67464D",
"053 c #664E53",
"054 c #7B4344",
"055 c #7B4A53",
"056 c #77555D",
"057 c #795B62",
"058 c #7F646B",
"059 c #797876",
"060 c #212499",
"061 c #4F27AC",
"062 c #4057D9",
"063 c #456AC3",
"064 c #6948E1",
"065 c #5CCA69",
"066 c #65CC49",
"067 c #6CDF4E",
"068 c #61E377",
"069 c #65BDBE",
"070 c #5698CA",
"071 c #4C8CED",
"072 c #62CA99",
"073 c #69EDB3",
"074 c #5FC0F3",
"075 c #6FE8E3",
"076 c #831106",
"077 c #811D16",
"078 c #961813",
"079 c #92211D",
"080 c #822820",
"081 c #82342B",
"082 c #922923",
"083 c #91332B",
"084 c #903B34",
"085 c #A21816",
"086 c #B4131A",
"087 c #BA1F25",
"088 c #A6201F",
"089 c #A82B29",
"090 c #A63A36",
"091 c #BD2730",
"092 c #BB3639",
"093 c #8C3F49",
"094 c #98324A",
"095 c #AB274C",
"096 c #A63F6E",
"097 c #89423B",
"098 c #834847",
"099 c #834C51",
"100 c #8F524F",
"101 c #865458",
"102 c #914C47",
"103 c #945C5B",
"104 c #8B5E61",
"105 c #86656B",
"106 c #8B6E72",
"107 c #88787A",
"108 c #966869",
"109 c #947475",
"110 c #A44946",
"111 c #A45856",
"112 c #B64646",
"113 c #B65858",
"114 c #A36767",
"115 c #A6787A",
"116 c #AF7478",
"117 c #B46465",
"118 c #B07071",
"119 c #CB0F28",
"120 c #CE1827",
"121 c #D5152B",
"122 c #CD212D",
"123 c #CD2A36",
"124 c #C4353B",
"125 c #D62834",
"126 c #D8343F",
"127 c #CC2455",
"128 c #C93B41",
"129 c #DC2D54",
"130 c #D03D43",
"131 c #D03E55",
"132 c #E02A5B",
"133 c #C9484B",
"134 c #C74E53",
"135 c #C9595A",
"136 c #D74049",
"137 c #D24951",
"138 c #D2565B",
"139 c #C76467",
"140 c #CD6362",
"141 c #C76E74",
"142 c #C6777D",
"143 c #D36565",
"144 c #D46369",
"145 c #D66F6A",
"146 c #D36C70",
"147 c #D0716F",
"148 c #D27472",
"149 c #D4777F",
"150 c #D67B73",
"151 c #D57D7C",
"152 c #D87174",
"153 c #D97A7E",
"154 c #8E34BA",
"155 c #B3378D",
"156 c #B33EB3",
"157 c #947E80",
"158 c #B57E81",
"159 c #A545E5",
"160 c #D27F87",
"161 c #E34FA7",
"162 c #E676A4",
"163 c #D54AE1",
"164 c #E749C4",
"165 c #E674D4",
"166 c #FF79CE",
"167 c #B88036",
"168 c #B58459",
"169 c #86DB40",
"170 c #9CDC7C",
"171 c #92EB43",
"172 c #ABDB6E",
"173 c #B7E954",
"174 c #C6967F",
"175 c #D2857B",
"176 c #D9AF41",
"177 c #D3AF65",
"178 c #D4B07C",
"179 c #E1A56F",
"180 c #C4DA75",
"181 c #D1C677",
"182 c #DAD66A",
"183 c #C6F750",
"184 c #EAE355",
"185 c #8A8786",
"186 c #8E938D",
"187 c #978786",
"188 c #9F9E9A",
"189 c #9BA09A",
"190 c #A38180",
"191 c #A79696",
"192 c #B3898B",
"193 c #BB8497",
"194 c #AEA9A5",
"195 c #B7A6A4",
"196 c #BCAEBF",
"197 c #B9B6AD",
"198 c #A8A0DB",
"199 c #A4B7D5",
"200 c #98DA92",
"201 c #99D1AA",
"202 c #9FC8C2",
"203 c #CA888C",
"204 c #C5959A",
"205 c #D78786",
"206 c #D18D84",
"207 c #DA8487",
"208 c #DB8C91",
"209 c #D3948B",
"210 c #D69E8D",
"211 c #D69B95",
"212 c #DB9296",
"213 c #DF9B9C",
"214 c #D79CA2",
"215 c #DFA49C",
"216 c #C4ACAD",
"217 c #C8ACA0",
"218 c #C4B5AE",
"219 c #CCB7A4",
"220 c #C9B3AE",
"221 c #C4B2B2",
"222 c #C7B6BC",
"223 c #CAB5B4",
"224 c #C8BFB8",
"225 c #D2A4A7",
"226 c #D7ACA3",
"227 c #DCA5A0",
"228 c #DCABA2",
"229 c #D4B2AB",
"230 c #D4B5B4",
"231 c #D3BDBC",
"232 c #DFB2B2",
"233 c #DCB9B5",
"234 c #D8BCB8",
"235 c #E29DA2",
"236 c #F588A5",
"237 c #FF80BD",
"238 c #E9A69E",
"239 c #E6A7A0",
"240 c #E4AEA4",
"241 c #E4A9AD",
"242 c #E9ABA3",
"243 c #EAA5B8",
"244 c #EDB5A4",
"245 c #E5B8B9",
"246 c #CB84E2",
"247 c #C19EEE",
"248 c #D0BFCF",
"249 c #C8C3BD",
"250 c #DCC1AE",
"251 c #CCC9C0",
"252 c #DECBC5",
"253 c #DDD2CC",
"254 c #E5C9C9",
"255 c #EDD8D5",
"197249224218223230229229229229226228240242242238239228250217243",
"251253252234233232228227211209206175150150145143140148215116162",
"254255254245245241213212205151147140135133128124091131236096161",
"231254254232241235208207149152143138137130123123119129237155164",
"216231230225214212160149146144138137136126125121121132166156163",
"195221216204204203142141139135134133128123122120119127165154159",
"189194194192192158118117117113112112092091087086086095246061064",
"186188191187190115114114111111110090090089088085078094247060062",
"185185187157109108108103100102097084083082079078076093198063071",
"059107107106105104101101098098097081081080077077036054199070074",
"058058105105101101099098047044044043043039037036034049202069075",
"056057057056055055054047044042040040039038035034022048201072073",
"051053053052046046042042041032040031038035035021019048200065068",
"050050050045033033033032031031024024024021021021007027170066067",
"015016016014014030030029013013009020020020018018017028172169171",
"003012012012011013011013013009009009008008007007018028180173183",
"011010010010010006006006006006005005005005004004004026181182184",
"002002002002002002001001001000000000000000000000000025178177176",
"001001001000001000001000000000000000000000000004007041174168167",
"188191188191188191191191191191191191191191191191193193244210179",
"218218218218218218218220218220220220220220220223248196222216219"
};
