/* XPM */
static char *Pixmap[] = {
"21 21 256 3",
"000 c Gray17",
"001 c #2C2C2C",
"002 c Gray18",
"003 c #3B2E2E",
"004 c Gray19",
"005 c #313030",
"006 c #323232",
"007 c #323333",
"008 c Gray21",
"009 c #373A3A",
"010 c #3E3737",
"011 c Gray22",
"012 c Gray23",
"013 c #3E3E3E",
"014 c #3F3F3F",
"015 c #344343",
"016 c #384545",
"017 c #3A4444",
"018 c #423535",
"019 c #6E0606",
"020 c #731F1F",
"021 c #6D2121",
"022 c #6F2A2A",
"023 c Gray25",
"024 c #414141",
"025 c #474141",
"026 c #444245",
"027 c #444444",
"028 c #464646",
"029 c Gray28",
"030 c #464F4F",
"031 c #4B474C",
"032 c #494949",
"033 c Gray29",
"034 c #4B4B4B",
"035 c #4C494D",
"036 c Gray30",
"037 c #4E4951",
"038 c #475050",
"039 c #4D5454",
"040 c #505050",
"041 c #525151",
"042 c Gray32",
"043 c #555252",
"044 c Gray34",
"045 c #565D5D",
"046 c #595454",
"047 c #595656",
"048 c #595757",
"049 c #595A58",
"050 c Gray37",
"051 c #5F5F5F",
"052 c #566565",
"053 c #5E6666",
"054 c #5B6868",
"055 c #6F5C5C",
"056 c #615E63",
"057 c Gray38",
"058 c #626262",
"059 c Gray39",
"060 c #656565",
"061 c Gray40",
"062 c #676767",
"063 c #67676C",
"064 c #686868",
"065 c Gray41",
"066 c #6A696B",
"067 c #6A6B69",
"068 c #6A6A6A",
"069 c Gray42",
"070 c #6B6B6D",
"071 c #6B6B6E",
"072 c #6F6969",
"073 c #6C6C6C",
"074 c Gray43",
"075 c #6F6F6F",
"076 c #657474",
"077 c #6B7777",
"078 c #716666",
"079 c Gray44",
"080 c #707071",
"081 c #717071",
"082 c #717171",
"083 c #727272",
"084 c Gray45",
"085 c #737777",
"086 c Gray46",
"087 c #767676",
"088 c #777777",
"089 c #767678",
"090 c #717E7E",
"091 c #787575",
"092 c Gray47",
"093 c #787879",
"094 c #797979",
"095 c Gray48",
"096 c #7D7B7B",
"097 c #7C7C7C",
"098 c Gray50",
"099 c #7F8181",
"100 c #7C8888",
"101 c #8D0E0E",
"102 c #811515",
"103 c #811717",
"104 c #8B1111",
"105 c #9A0303",
"106 c #A40D0D",
"107 c #DC0000",
"108 c #E30000",
"109 c #E60000",
"110 c #E80000",
"111 c #FC0000",
"112 c red",
"113 c #818181",
"114 c #828081",
"115 c #838383",
"116 c #848484",
"117 c Gray52",
"118 c #868C84",
"119 c #808989",
"120 c #868A8A",
"121 c #888888",
"122 c #898989",
"123 c #8B8B8B",
"124 c #8B8C8C",
"125 c #8D8D8D",
"126 c #8E8E8E",
"127 c #8E8F8F",
"128 c Gray56",
"129 c Gray57",
"130 c #959595",
"131 c #969595",
"132 c Gray59",
"133 c #969797",
"134 c #979797",
"135 c #989898",
"136 c Gray60",
"137 c #9A9A9A",
"138 c #9B9B9B",
"139 c #999C9C",
"140 c #999D9D",
"141 c #9A9D9D",
"142 c Gray61",
"143 c #9D9D9D",
"144 c Gray62",
"145 c #9F9F9F",
"146 c #9FA0A0",
"147 c #A0A0A0",
"148 c Gray63",
"149 c #A2A1A1",
"150 c #A2A2A2",
"151 c Gray64",
"152 c #A4A4A4",
"153 c #A7A7A7",
"154 c #A6A8A8",
"155 c Gray66",
"156 c Gray67",
"157 c #ACB3B3",
"158 c Gray70",
"159 c #B7B7B7",
"160 c #B6B9B4",
"161 c #B7BBB4",
"162 c #B9B9B9",
"163 c Gray73",
"164 c #BCC4B9",
"165 c #BFC6BB",
"166 c #B9C3C3",
"167 c #C1C1C1",
"168 c Gray77",
"169 c #C0CDCD",
"170 c #CBCBCB",
"171 c #CDCDCD",
"172 c #CECECE",
"173 c Gray81",
"174 c Gray87",
"175 c #DCE0DA",
"176 c #D8E0E0",
"177 c #E2E2E2",
"178 c #E6EEEE",
"179 c Gray91",
"180 c #EBEEEA",
"181 c Gray93",
"182 c #EFF3F3",
"183 c Gray96",
"184 c #F6F6F6",
"185 c #F6F7F6",
"186 c #F9FBF8",
"187 c #FBFBFB",
"188 c Gray99",
"189 c #FCFDFD",
"190 c #FDFDFD",
"191 c Gray100",
"192 c black",
"193 c black",
"194 c black",
"195 c black",
"196 c black",
"197 c black",
"198 c black",
"199 c black",
"200 c black",
"201 c black",
"202 c black",
"203 c black",
"204 c black",
"205 c black",
"206 c black",
"207 c black",
"208 c black",
"209 c black",
"210 c black",
"211 c black",
"212 c black",
"213 c black",
"214 c black",
"215 c black",
"216 c black",
"217 c black",
"218 c black",
"219 c black",
"220 c black",
"221 c black",
"222 c black",
"223 c black",
"224 c black",
"225 c black",
"226 c black",
"227 c black",
"228 c black",
"229 c black",
"230 c black",
"231 c black",
"232 c black",
"233 c black",
"234 c black",
"235 c black",
"236 c black",
"237 c black",
"238 c black",
"239 c black",
"240 c black",
"241 c black",
"242 c black",
"243 c black",
"244 c black",
"245 c black",
"246 c black",
"247 c black",
"248 c black",
"249 c black",
"250 c black",
"251 c black",
"252 c black",
"253 c black",
"254 c black",
"255 c black",
"191191191191191191191191188128121184191191191191191191191191191",
"191191191191191191191177082121129061174191191191191191191191191",
"191191191191191191156059135142138144061152191191191191191191191",
"191191191191181125024143138130130137151028095179191191191191191",
"191191191167059116032036132155155135027011121059159191191191191",
"191187129084144143144036029162168033014142143147088115183191191",
"191153087151132132136131001085120000128137132132151113089191191",
"191144059117150137145124038003018017099149138145122082063191191",
"191147057061134171144045104108109101030127170152082074070191191",
"191150051074065150077022111112112112020054153094087074093191191",
"191159004044069088076102112112112112106052087092050002086191191",
"191147064040023005016021112112112112103015004013024058073191191",
"191148057087138133146039019107110105025141134136098079071191191",
"191142060061097173075007100078055119009059172126075083063191191",
"191164035080064126006059147139140146086002123086094048114191191",
"191191161042066069006068126155153129092012061091043157190191191",
"191191191180067026008073068158163084088034010053176191191191191",
"191191191191186160031081062097123079096046166182191191191191191",
"191191191191191191175049056075086072041169191191191191191191191",
"191191191191191191191185118037047090178191191191191191191191191",
"191191191191191191191191191165154189191191191191191191191191191"
};
