/* XPM */
static char *Pixmap[] = {
"21 21 256 3",
"000 c #2E3641",
"001 c #2D3548",
"002 c #2C3F4E",
"003 c #333B46",
"004 c #323E56",
"005 c #373F54",
"006 c #393E55",
"007 c #384646",
"008 c #3C4A4A",
"009 c #3A4155",
"010 c #3B4850",
"011 c #3E4B53",
"012 c #3E5158",
"013 c #3E5160",
"014 c #3D5571",
"015 c #444057",
"016 c #464E58",
"017 c #484055",
"018 c #4F564E",
"019 c #43565D",
"020 c #495757",
"021 c #4B535E",
"022 c #4A5858",
"023 c #4C5A5A",
"024 c #4D585E",
"025 c #4E5C5F",
"026 c #515459",
"027 c #515F5F",
"028 c #424C65",
"029 c #425C6D",
"030 c #465C69",
"031 c #4D5560",
"032 c #4F576A",
"033 c #4B5962",
"034 c #4C5F66",
"035 c #485977",
"036 c #4C5870",
"037 c #534F66",
"038 c #525A65",
"039 c #515E66",
"040 c #575C62",
"041 c #515A6B",
"042 c #52586E",
"043 c #5D556A",
"044 c #545871",
"045 c #565E73",
"046 c #595E74",
"047 c #4D6067",
"048 c #4F6269",
"049 c #526060",
"050 c #546262",
"051 c #526168",
"052 c #51636D",
"053 c #55626A",
"054 c #56646D",
"055 c #55686F",
"056 c #59666E",
"057 c #516475",
"058 c #576A71",
"059 c #5C667F",
"060 c #5A6871",
"061 c #596A74",
"062 c #5A6D74",
"063 c #5C6F76",
"064 c #5B6E7F",
"065 c #5E7178",
"066 c #686F67",
"067 c #606D75",
"068 c #67726E",
"069 c #61747B",
"070 c #65727B",
"071 c #6B7076",
"072 c #6B7672",
"073 c #69767F",
"074 c #6E757B",
"075 c #6E7975",
"076 c #6E7A7A",
"077 c #72777D",
"078 c #4D6483",
"079 c #566785",
"080 c #587283",
"081 c #5E7180",
"082 c #58708A",
"083 c #637685",
"084 c #647786",
"085 c #657887",
"086 c #657988",
"087 c #6A7981",
"088 c #687887",
"089 c #6D7982",
"090 c #6F7C85",
"091 c #687B8A",
"092 c #697C8B",
"093 c #6A7D8C",
"094 c #6D7E8E",
"095 c #78748B",
"096 c #7A768D",
"097 c #78798D",
"098 c #767D91",
"099 c #787E94",
"100 c #7E7A91",
"101 c #76817D",
"102 c #74818A",
"103 c #7A8581",
"104 c #7D848A",
"105 c #7E8985",
"106 c #738D9E",
"107 c #7B8096",
"108 c #7C8197",
"109 c #7D8298",
"110 c #7E849A",
"111 c #788A98",
"112 c #7E8FAD",
"113 c #7791A2",
"114 c #7393AC",
"115 c #7892A3",
"116 c #7993A4",
"117 c #7A94A5",
"118 c #7C96A7",
"119 c #7F90AE",
"120 c #7D94B3",
"121 c #7E95B4",
"122 c #7E9EB7",
"123 c #807C93",
"124 c #837F96",
"125 c #808B87",
"126 c #83888E",
"127 c #868597",
"128 c #81869C",
"129 c #838A90",
"130 c #848B91",
"131 c #858C92",
"132 c #82889E",
"133 c #828D9E",
"134 c #848B9E",
"135 c #848D9E",
"136 c #8A8297",
"137 c #8B879E",
"138 c #8C8499",
"139 c #8F879C",
"140 c #898E92",
"141 c #899096",
"142 c #8A9591",
"143 c #8D9195",
"144 c #8B929D",
"145 c #8C9399",
"146 c #8D949A",
"147 c #948799",
"148 c #91899E",
"149 c #92959A",
"150 c #92999F",
"151 c #94989B",
"152 c #959A9E",
"153 c #838DA6",
"154 c #858AA0",
"155 c #868DA1",
"156 c #878FA4",
"157 c #8D8FA6",
"158 c #8B8FA8",
"159 c #8393A3",
"160 c #8196A5",
"161 c #8790A1",
"162 c #8197AF",
"163 c #8792AA",
"164 c #8497A8",
"165 c #8598A9",
"166 c #8992A2",
"167 c #8990A6",
"168 c #8894A2",
"169 c #8A96A4",
"170 c #8C95A7",
"171 c #8992A9",
"172 c #8993AC",
"173 c #8994A8",
"174 c #8A95AE",
"175 c #8D91AA",
"176 c #8E96A9",
"177 c #8E96AD",
"178 c #889AA4",
"179 c #899BA9",
"180 c #889BAC",
"181 c #899CAD",
"182 c #8E9BAB",
"183 c #8E9EAE",
"184 c #8192B0",
"185 c #8097B6",
"186 c #8595B2",
"187 c #8697B5",
"188 c #8199B3",
"189 c #8299B5",
"190 c #8798B6",
"191 c #849CB6",
"192 c #8299B8",
"193 c #829CBF",
"194 c #849BBA",
"195 c #869EB8",
"196 c #869DBC",
"197 c #8C96B0",
"198 c #899FB6",
"199 c #8D99B1",
"200 c #8A9BB9",
"201 c #889FBE",
"202 c #8C9DBB",
"203 c #938BA0",
"204 c #968EA3",
"205 c #9195AD",
"206 c #9299A3",
"207 c #949BA1",
"208 c #959DA0",
"209 c #979EA4",
"210 c #9098AB",
"211 c #9199AD",
"212 c #949BAB",
"213 c #9991A6",
"214 c #9F92A4",
"215 c #9397B0",
"216 c #909AB3",
"217 c #9498B1",
"218 c #959DB0",
"219 c #88A0BA",
"220 c #8AA2BC",
"221 c #9EA5AB",
"222 c #94A5B5",
"223 c #A8A49B",
"224 c #A9A59C",
"225 c #B0ACA3",
"226 c #B3AFA6",
"227 c #B4B0A7",
"228 c #B6B2A9",
"229 c #B8B4AB",
"230 c #BAB6AD",
"231 c #B3B5B4",
"232 c #BEBAB1",
"233 c #BEBBB4",
"234 c #BCBEBD",
"235 c #87A1C4",
"236 c #BFC1C0",
"237 c #C1BDB4",
"238 c #C1C3C2",
"239 c #CCCECD",
"240 c #D0CCC3",
"241 c #D0D2D1",
"242 c #D4D6D5",
"243 c #D6D8D7",
"244 c #DFDAD4",
"245 c Gray86",
"246 c #DCDADB",
"247 c gainsboro",
"248 c #DEE0DF",
"249 c #E0DCD3",
"250 c #E0DFDB",
"251 c #E0E1E5",
"252 c #E4E6E6",
"253 c #E4E6E9",
"254 c #E7E9E8",
"255 c #E8E9EB",
"052056056053053056053051010011067039051053056051054024140238233",
"178180181181181180165165057064181164181181183160179087141231224",
"193121121194194121120192014078185185196196201162222102146234225",
"235184119190187112184202035079187184186186200186159087145239232",
"147123096100100095100137015037124096096095100097169090145239228",
"214148138138138136139213017043204203148138139127166090141241227",
"197175158158158158158175006044215215215175205167133073129242230",
"174199216199197199199163004036174197197172216199183090104239226",
"086092093092086085091093002013083093086084081094088053129242237",
"030048062065063055048034019012047055069087058055058054145241229",
"066075103125105101075068101068072075105142101076060070221243230",
"018023049050050027023020007008023022023049022025033039131236223",
"114115116117117117115113029080118117106113106160111087209248240",
"122191191191219195191188014082188191191220189198183090207254249",
"205174172174197199197172028059153163172216163173182089150252249",
"157154110108110132154155006046132128107128110134168089208252244",
"156132109098098107132155006042132099110099099098144074152255250",
"211177170156156167176177005045176167176155155155144071143251246",
"210211210210176176176176001032170170218176210212206077149251246",
"161161161161161135135135009041135133170161161161126071151253247",
"031031031021021021021021000003038016038021016016040026143252246"
};
