/* XPM */
static char *Pixmap[] = {
"21 21 256 3",
"000 c black",
"001 c #000004",
"002 c #0F1016",
"003 c #111418",
"004 c Gray11",
"005 c #1C1D22",
"006 c #3A3C40",
"007 c #424140",
"008 c #404244",
"009 c Gray30",
"010 c #515256",
"011 c #545457",
"012 c #5D5E60",
"013 c #636467",
"014 c #656666",
"015 c #666869",
"016 c #696561",
"017 c #6C6A64",
"018 c Gray41",
"019 c #6C6C6C",
"020 c #6F7070",
"021 c #716E69",
"022 c #72706A",
"023 c #74726D",
"024 c #747474",
"025 c #797670",
"026 c #7F7D77",
"027 c #797979",
"028 c #7C7C7E",
"029 c #0098B7",
"030 c #249BB5",
"031 c #00A1C3",
"032 c #00AACB",
"033 c #00B8DC",
"034 c #02BBE2",
"035 c #2BA4C0",
"036 c #2ABCDF",
"037 c #0DD1FB",
"038 c #37D4FA",
"039 c #58A3BC",
"040 c #6E8590",
"041 c #6D8893",
"042 c #718B98",
"043 c #7393A1",
"044 c #68AAC2",
"045 c #68ADC6",
"046 c #60B7D4",
"047 c #6FBCD7",
"048 c #54C0E3",
"049 c #55DDFF",
"050 c #5FDEFF",
"051 c #41E9FF",
"052 c #66DFFF",
"053 c #68D1F3",
"054 c #68DDFF",
"055 c #7ED2EF",
"056 c #73D3F1",
"057 c #76D9F9",
"058 c #75DCFD",
"059 c #79D4F2",
"060 c #6CE0FF",
"061 c #8A7368",
"062 c #817F7A",
"063 c #8D7B74",
"064 c #83817A",
"065 c #818181",
"066 c #808285",
"067 c #868380",
"068 c #868687",
"069 c #878788",
"070 c #87888A",
"071 c #8A8581",
"072 c #8D8B86",
"073 c #898989",
"074 c #8A8C8F",
"075 c #8D8B88",
"076 c #8D8D8C",
"077 c #8D8E91",
"078 c #908E8E",
"079 c #9D8880",
"080 c #959189",
"081 c #9B958B",
"082 c #929192",
"083 c #919394",
"084 c #959492",
"085 c #959595",
"086 c #979899",
"087 c #9A9A9A",
"088 c #9D9C99",
"089 c #9E9D9D",
"090 c #9EA0A1",
"091 c #9FA0A2",
"092 c #A59088",
"093 c #A59B97",
"094 c #A09D99",
"095 c #A19F9C",
"096 c #AC9E98",
"097 c #A3A19F",
"098 c #B8A39B",
"099 c Gray64",
"100 c #A3A4A5",
"101 c #A5A5A5",
"102 c #A8A7A3",
"103 c #AAA9A5",
"104 c #A8A9A9",
"105 c #AEADA9",
"106 c #ACACAC",
"107 c #AFAFB2",
"108 c #AEB0B1",
"109 c #A8B3BB",
"110 c #B0ACA6",
"111 c #B1AEA7",
"112 c #B2AFA8",
"113 c #BAA6A1",
"114 c #BDA8A2",
"115 c #B5B1AB",
"116 c #B5B2AB",
"117 c #B6B5AF",
"118 c #B8B4AA",
"119 c #BAB5AF",
"120 c #B0B0B1",
"121 c #B2B2B4",
"122 c #B3B5B5",
"123 c Gray71",
"124 c #B6B8B8",
"125 c #B8B7B2",
"126 c #BBB6B0",
"127 c #BCB8B2",
"128 c #BDBAB4",
"129 c #BCBAB6",
"130 c #B8B8B9",
"131 c #BCBBBB",
"132 c #BCBCBC",
"133 c #87C8E0",
"134 c #83D2ED",
"135 c #C2ACA4",
"136 c #C0B0AB",
"137 c #C5B3AD",
"138 c #C8B5AE",
"139 c #C0BDB6",
"140 c #C7B8B2",
"141 c #C6B9B5",
"142 c #C1BEB9",
"143 c #C2BFB8",
"144 c #C7BDB8",
"145 c #C8B7B1",
"146 c #CABEB9",
"147 c #D3BFB4",
"148 c #C3C0BB",
"149 c #C8C3B9",
"150 c #CBC6BF",
"151 c #CCC7BD",
"152 c #CDC9BE",
"153 c #D9C8BD",
"154 c #D9CCBE",
"155 c #DCCBBC",
"156 c Gray77",
"157 c #C7C8C9",
"158 c #CAC7C2",
"159 c #CBC8C5",
"160 c #CECAC0",
"161 c #CCCAC7",
"162 c #C8C8C8",
"163 c #CACBCA",
"164 c #CACACC",
"165 c #CDCECF",
"166 c #D1C7C4",
"167 c #D0CAC1",
"168 c #D0CDC2",
"169 c #D1CDC6",
"170 c #D3CDC5",
"171 c #D3CEC5",
"172 c #D2CEC7",
"173 c #D4CFC6",
"174 c #D0CFCF",
"175 c #D4CDC8",
"176 c #D4D0C6",
"177 c #D3D0C8",
"178 c #D3D1CC",
"179 c #D5D0C8",
"180 c #D6D1C8",
"181 c #D6D2CA",
"182 c #D7D4CE",
"183 c #D8D3CB",
"184 c #D8D3CD",
"185 c #D8D4CA",
"186 c #D8D4CD",
"187 c #D8D4CE",
"188 c #D9D6CE",
"189 c #DAD5CE",
"190 c #DBD7CD",
"191 c #DBD6CE",
"192 c #DCD6CE",
"193 c #DDD9CF",
"194 c #D1D2D2",
"195 c #D2D4D3",
"196 c #D7D6D0",
"197 c #D5D5D4",
"198 c #D4D4D7",
"199 c #DBD7D0",
"200 c #DDD9D0",
"201 c #DCD9D3",
"202 c #DEDAD0",
"203 c #DEDAD2",
"204 c #DCDAD5",
"205 c #D9DBDC",
"206 c #DFDBD8",
"207 c #DFDDD8",
"208 c gainsboro",
"209 c #DEE3E2",
"210 c #E0D1C7",
"211 c #E0DBD1",
"212 c #E0DCD2",
"213 c #E0DDD6",
"214 c #E1DED8",
"215 c #E4DED8",
"216 c #E2E0D9",
"217 c #E5E1DA",
"218 c #E4E1DC",
"219 c #E6E4DD",
"220 c #ECE6DE",
"221 c #E1E2E2",
"222 c #E6E1E2",
"223 c #E5E4E5",
"224 c #E6E6E8",
"225 c #EAE8E2",
"226 c #EBE9E7",
"227 c #EEE9E1",
"228 c #EDEAE5",
"229 c #EAEAEA",
"230 c #EDEBE9",
"231 c #EEECE8",
"232 c Gray93",
"233 c #EDEEF0",
"234 c #F0ECE2",
"235 c #F0EDE5",
"236 c #FBEAE0",
"237 c #F3F0E8",
"238 c #F2F1EE",
"239 c #F4F1E9",
"240 c #F5F2EE",
"241 c #FEF0E7",
"242 c #FFF6EF",
"243 c #F1F1F3",
"244 c #F3F5F6",
"245 c #F7F8FA",
"246 c #FBF7F0",
"247 c #FCF8F1",
"248 c #F9F9F9",
"249 c #F9FAFA",
"250 c #FBFBFC",
"251 c #FBFCFE",
"252 c #FFFFFB",
"253 c #FCFCFD",
"254 c #FCFCFE",
"255 c #FEFEFF",
"177172202200203193202202202202202202202202202202193211191171179",
"173186126128127127110116112112112115112112112111139148143186176",
"181151163198091244255245255255255249254254251255205066233213167",
"181152156164232174255229229229232232243255255255076224083217167",
"181149195253130165255250254248255255255255255255165077221216152",
"169211228247252239228239235237235237228235235237246189225189168",
"217094025062071026064021023022022023023016017016021139117105216",
"234067001005000006002015104070104008194074013010028239168129214",
"227072003007004009004027123104090012093063096146166150080125218",
"220075011014019018019065087067078071041043042040109175178103217",
"202097157208162156123104100130104135059038049051050147119105219",
"212088124156124123106069024065020061044031030032039242230238186",
"212095121104108124104106131104121136133060056053055241228231184",
"212094122157130124103085099106104099144135138114140238226226188",
"212088130163131122104073019027027014123068101082131238228226188",
"212089122106120130103087087100073086141114113098145238231240184",
"212095121122123130104106131130130137134054058052057236240161201",
"212088130197156122106073019085020079045029035033047210081125214",
"212084107108101120090083089068077092046037036034048153118102219",
"170182207204206213204207216218218215209222223223209150159196203",
"172185173176176176180180176179176179154155155155154190190183167"
};
