/* XPM */
static char *Pixmap[] = {
"21 21 256 3",
"000 c black",
"001 c #0C0C0C",
"002 c #131313",
"003 c #151616",
"004 c #171818",
"005 c #181818",
"006 c Gray10",
"007 c #1B1B1C",
"008 c #343332",
"009 c #353535",
"010 c #393836",
"011 c #383839",
"012 c #3C3C3C",
"013 c #484745",
"014 c #484746",
"015 c #484848",
"016 c #4E4D4B",
"017 c #4C4C4C",
"018 c #4E4D4C",
"019 c #4F4F4D",
"020 c #514945",
"021 c Gray34",
"022 c #575858",
"023 c #595856",
"024 c #585858",
"025 c #5A5A5A",
"026 c #5C5B5A",
"027 c #5D5C5B",
"028 c Gray36",
"029 c #5E5D5C",
"030 c #5F5E5D",
"031 c #61605D",
"032 c Gray38",
"033 c #626262",
"034 c #6C6661",
"035 c #6D6865",
"036 c Gray41",
"037 c #6A6A69",
"038 c #6A6A6A",
"039 c #6D6B6B",
"040 c #6E6D6A",
"041 c #6D6D6D",
"042 c #6F6F6F",
"043 c #716966",
"044 c #706A66",
"045 c #717171",
"046 c #727272",
"047 c #757473",
"048 c #767575",
"049 c #7B7776",
"050 c #797877",
"051 c #797979",
"052 c #7B7978",
"053 c #7B7A79",
"054 c Gray48",
"055 c #7C7B79",
"056 c #7E7C79",
"057 c #7E7D7B",
"058 c #7C7C7C",
"059 c #7E7E7C",
"060 c Gray",
"061 c #008CA5",
"062 c #0D8EA7",
"063 c #148AA2",
"064 c #1F95AE",
"065 c #26889F",
"066 c #31A4BE",
"067 c #00A7C4",
"068 c #26A3C0",
"069 c #2EB9D8",
"070 c #38CFF2",
"071 c #5D8999",
"072 c #5F8E9E",
"073 c #4E97AC",
"074 c #5F94A5",
"075 c #4DA0B7",
"076 c #5FA8BD",
"077 c #6A8691",
"078 c #6191A0",
"079 c #6499AA",
"080 c #6E94A2",
"081 c #57BDDA",
"082 c #69B2C7",
"083 c #77B3C7",
"084 c #75B4C9",
"085 c #7EBED2",
"086 c #5FC2DF",
"087 c #44C4E3",
"088 c #49CCEC",
"089 c #59CFEE",
"090 c #52D6F7",
"091 c #54D7F7",
"092 c #6DC6DF",
"093 c #76C5DD",
"094 c #61C6E2",
"095 c #6ED0EC",
"096 c #61D2F0",
"097 c #62D9F7",
"098 c #74CDE8",
"099 c #71D0EC",
"100 c #77D0EB",
"101 c #77D2EE",
"102 c #807F7D",
"103 c #81807E",
"104 c #818181",
"105 c Gray51",
"106 c #858482",
"107 c Gray53",
"108 c #8E8784",
"109 c #8A8986",
"110 c #8D8884",
"111 c #888888",
"112 c Gray54",
"113 c #8E8D8C",
"114 c #8E8E8E",
"115 c #8F8F90",
"116 c #928D89",
"117 c #948E8B",
"118 c #94918C",
"119 c #909090",
"120 c #929292",
"121 c Gray59",
"122 c #9B9390",
"123 c #9B9592",
"124 c #9F9794",
"125 c #999897",
"126 c #989898",
"127 c #9A9999",
"128 c #9A9A99",
"129 c #9A9A9A",
"130 c #9D9C9B",
"131 c Gray61",
"132 c #83ACB9",
"133 c #81ADBD",
"134 c #A09895",
"135 c #A09996",
"136 c #A29D9A",
"137 c #A59F9D",
"138 c #AAA39F",
"139 c Gray63",
"140 c #A7A5A1",
"141 c #A4A4A4",
"142 c Gray65",
"143 c #A2ABAF",
"144 c #AAA5A3",
"145 c #AAA7A6",
"146 c #ADA5A3",
"147 c #ADA6A2",
"148 c #ACA9A4",
"149 c Gray66",
"150 c #AAAAAA",
"151 c #A9ACAD",
"152 c #AEACA8",
"153 c Gray68",
"154 c #AFAFAF",
"155 c #A3AEB2",
"156 c #AFAFB0",
"157 c #A8B2B6",
"158 c #AEB1B2",
"159 c #A9B6BB",
"160 c #B1ADAB",
"161 c #B2AFAB",
"162 c #B1B0AF",
"163 c #B5B2AC",
"164 c #B8B5AF",
"165 c Gray69",
"166 c #B0B2B3",
"167 c #B3B1B0",
"168 c #B2B2B2",
"169 c #B3B5B6",
"170 c #B4B4B4",
"171 c #B6B6B6",
"172 c #B3BABD",
"173 c #B6B9BA",
"174 c #B9B3B0",
"175 c #BFBCB7",
"176 c Gray72",
"177 c Gray73",
"178 c #B8BBBC",
"179 c #BFBDBA",
"180 c #BCBCBC",
"181 c #BEBEBE",
"182 c #82B5C7",
"183 c #B6BEC2",
"184 c #83C8DF",
"185 c #8DC1D3",
"186 c #9EC2D0",
"187 c #8DCDE2",
"188 c #8DD1E7",
"189 c #8CD3EB",
"190 c #98CDE0",
"191 c #C0BCB7",
"192 c #C1BEB6",
"193 c #C1BFBA",
"194 c #C3C0BC",
"195 c #C7C3BB",
"196 c #C6C3BF",
"197 c #C8C4BC",
"198 c #C1C1C1",
"199 c Gray77",
"200 c Gray78",
"201 c #C8C6C1",
"202 c #C9C7C3",
"203 c #CFCCC6",
"204 c Gray79",
"205 c #CFCDC9",
"206 c Gray80",
"207 c #CFCECE",
"208 c #D2CEC6",
"209 c #D2D0CA",
"210 c #D6D1C9",
"211 c #D7D3CC",
"212 c #D7D4CC",
"213 c #D8D4CC",
"214 c #D8D5CE",
"215 c #DAD6CF",
"216 c Gray82",
"217 c Gray83",
"218 c #D9D6D0",
"219 c #DAD7D0",
"220 c #DBD8D0",
"221 c #DBD8D3",
"222 c #DCD9D2",
"223 c #DDDAD3",
"224 c #DEDAD3",
"225 c #DDDAD5",
"226 c #DEDAD4",
"227 c #DFDBD6",
"228 c #DFDCD4",
"229 c #DFDCD6",
"230 c #DADAD9",
"231 c #E1DAD3",
"232 c #E0DBD4",
"233 c #E0DDD6",
"234 c #E0DED7",
"235 c #E2DCD4",
"236 c #E2DDD6",
"237 c #E2DED7",
"238 c #E1DDD8",
"239 c #E1DED9",
"240 c #E1DFDA",
"241 c #E2DED9",
"242 c #E2DFDA",
"243 c #E2E0DA",
"244 c #E3E1DC",
"245 c #E4E1DC",
"246 c #E4E2DC",
"247 c #E5E3DE",
"248 c #EEECEA",
"249 c #EFEEEB",
"250 c #EFEEEC",
"251 c #F0EEEB",
"252 c #F0EEEC",
"253 c #F0EFEE",
"254 c #F0F0ED",
"255 c #F2F1EF",
"233234234233233233233223223222228215223226224224219197195208214",
"056018018019018016013029023027013030014010010008013196201152239",
"026007004000005003012115060120012168058025028022037221192175239",
"031005006001006002009115112060011035020043122138117164118148246",
"040029033033033028042112051060049077074072071133080205203140244",
"103177217206181170114105129107108084069087091070086202191179246",
"102170198180170153104045038033034079067064068061075253255253229",
"059168170170176150131168141141144186188187187184190250253248229",
"059168206199171150060060111112060160134146124147174251253248229",
"059170199181170150050024025024015130052113106145167249253248229",
"057168170168171150115125126107113172159155143157183250253248229",
"057165181198177142120129139127135085088089097090099249252248229",
"053168216200170150054029038021044078062065066063073250253248229",
"055168171165170149121141120120123182096094094081093250252248229",
"055154177180171142107120129121120169166173158151178252254248229",
"050165216204171142046025028032017127048048039125162249255248227",
"050154176165165142105058060036041145123116116137174244225194227",
"047142165156165139119141139131136185095100101095189209116161239",
"109206230207204177128106130112110132076082098092083193163152247",
"238245245242243243243239239241239237236235231231232218218225215",
"215214213214213213213213213212211211210210210210210210210210210"
};
