/* XPM */
static char *Pixmap[] = {
"21 21 256 3",
"000 c black",
"001 c Gray42",
"002 c #717171",
"003 c #777777",
"004 c Gray",
"005 c #708CBD",
"006 c #7ABAE9",
"007 c #808080",
"008 c #848484",
"009 c Gray54",
"010 c #909090",
"011 c Gray59",
"012 c Gray61",
"013 c #A2A2A2",
"014 c Gray66",
"015 c #AEAEAE",
"016 c #B4B4B4",
"017 c Gray73",
"018 c #86C3EB",
"019 c #8DC7EC",
"020 c #8FC8ED",
"021 c #93CBEE",
"022 c #97CFEF",
"023 c #9AD0EF",
"024 c #9FD3F0",
"025 c #A3D7F1",
"026 c #A5D8F2",
"027 c #AADBF3",
"028 c #AEDEF4",
"029 c #AFDFF5",
"030 c #B3E1F5",
"031 c #B5E3F6",
"032 c #B8E5F6",
"033 c #BAE6F7",
"034 c #BDE9F7",
"035 c #BDE8F8",
"036 c #C0C0C0",
"037 c Gray78",
"038 c #CCCBCB",
"039 c #CCCBCC",
"040 c #CDCDCD",
"041 c #D0D0D0",
"042 c #D3D3D3",
"043 c #D7D7D6",
"044 c #DCDCDD",
"045 c #C3ECF9",
"046 c #C7EFF9",
"047 c #CBF1FB",
"048 c #CCF3FB",
"049 c #CDF4FB",
"050 c #D2F7FD",
"051 c #D3F7FD",
"052 c #D4F8FC",
"053 c #D9FCFE",
"054 c #DEFFFF",
"055 c #E3E4E3",
"056 c #EBEAEB",
"057 c #FBFBFB",
"058 c black",
"059 c black",
"060 c black",
"061 c black",
"062 c black",
"063 c black",
"064 c black",
"065 c black",
"066 c black",
"067 c black",
"068 c black",
"069 c black",
"070 c black",
"071 c black",
"072 c black",
"073 c black",
"074 c black",
"075 c black",
"076 c black",
"077 c black",
"078 c black",
"079 c black",
"080 c black",
"081 c black",
"082 c black",
"083 c black",
"084 c black",
"085 c black",
"086 c black",
"087 c black",
"088 c black",
"089 c black",
"090 c black",
"091 c black",
"092 c black",
"093 c black",
"094 c black",
"095 c black",
"096 c black",
"097 c black",
"098 c black",
"099 c black",
"100 c black",
"101 c black",
"102 c black",
"103 c black",
"104 c black",
"105 c black",
"106 c black",
"107 c black",
"108 c black",
"109 c black",
"110 c black",
"111 c black",
"112 c black",
"113 c black",
"114 c black",
"115 c black",
"116 c black",
"117 c black",
"118 c black",
"119 c black",
"120 c black",
"121 c black",
"122 c black",
"123 c black",
"124 c black",
"125 c black",
"126 c black",
"127 c black",
"128 c black",
"129 c black",
"130 c black",
"131 c black",
"132 c black",
"133 c black",
"134 c black",
"135 c black",
"136 c black",
"137 c black",
"138 c black",
"139 c black",
"140 c black",
"141 c black",
"142 c black",
"143 c black",
"144 c black",
"145 c black",
"146 c black",
"147 c black",
"148 c black",
"149 c black",
"150 c black",
"151 c black",
"152 c black",
"153 c black",
"154 c black",
"155 c black",
"156 c black",
"157 c black",
"158 c black",
"159 c black",
"160 c black",
"161 c black",
"162 c black",
"163 c black",
"164 c black",
"165 c black",
"166 c black",
"167 c black",
"168 c black",
"169 c black",
"170 c black",
"171 c black",
"172 c black",
"173 c black",
"174 c black",
"175 c black",
"176 c black",
"177 c black",
"178 c black",
"179 c black",
"180 c black",
"181 c black",
"182 c black",
"183 c black",
"184 c black",
"185 c black",
"186 c black",
"187 c black",
"188 c black",
"189 c black",
"190 c black",
"191 c black",
"192 c black",
"193 c black",
"194 c black",
"195 c black",
"196 c black",
"197 c black",
"198 c black",
"199 c black",
"200 c black",
"201 c black",
"202 c black",
"203 c black",
"204 c black",
"205 c black",
"206 c black",
"207 c black",
"208 c black",
"209 c black",
"210 c black",
"211 c black",
"212 c black",
"213 c black",
"214 c black",
"215 c black",
"216 c black",
"217 c black",
"218 c black",
"219 c black",
"220 c black",
"221 c black",
"222 c black",
"223 c black",
"224 c black",
"225 c black",
"226 c black",
"227 c black",
"228 c black",
"229 c black",
"230 c black",
"231 c black",
"232 c black",
"233 c black",
"234 c black",
"235 c black",
"236 c black",
"237 c black",
"238 c black",
"239 c black",
"240 c black",
"241 c black",
"242 c black",
"243 c black",
"244 c black",
"245 c black",
"246 c black",
"247 c black",
"248 c black",
"249 c black",
"250 c black",
"251 c black",
"252 c black",
"253 c black",
"254 c black",
"255 c black",
"000000000000000000000000000000000000000000000000000000000000000",
"000057057057057057057057057057057057057057057057057057057057057",
"000057001001001001001001001001001001001005005005005005005005005",
"000057002002002002002002002002002002002005054052050047035030005",
"000057003003003003003003003003003003003005053050007007031027005",
"000057004004004004004004004004004004004005052007007007007025005",
"000057008008008008008008008008008008008005049045033028025022005",
"000057009009009009009009009009009009009005046035030026023019005",
"000057010010010010010010010010010010010005005005005005005005005",
"000057011011011011011011011011011011011005039041043044055056005",
"000057012012012012012012012012012012012005038041043044055056005",
"000057013013013013013013013013013013013005039041043044055056005",
"000057014014014014014014014014014014014005039041043044055056005",
"000057015015015015015015015015015015015005038041043044055056005",
"000057016016016016016016016016016016016005005005005005005005005",
"000057017017017017017017017017017017017005051047045032028025005",
"000057036036036036036036036036036036036005048045033029026022005",
"000057037037037037037037037037037037037005046007007007007020005",
"000057040040040040040040040040040040040005034030007007021018005",
"000057042042042042042042042042042042042005031027024021018006005",
"000005005005005005005005005005005005005005005005005005005005005"
};
