/* XPM */
static char *Pixmap[] = {
"24 24 256 3",
"000 c #00A9DA",
"001 c #00AADB",
"002 c #01AADB",
"003 c #02AADB",
"004 c #02ABDB",
"005 c #00ABDC",
"006 c #03ACDC",
"007 c #05ACDB",
"008 c #06ACDB",
"009 c #04ACDC",
"010 c #05ACDC",
"011 c #06ADDC",
"012 c #07ADDD",
"013 c #0AAEDD",
"014 c #0BAEDD",
"015 c #0EAFDE",
"016 c #14B1DE",
"017 c #15B2DF",
"018 c #1AB3DE",
"019 c #1DB4DF",
"020 c #1DB4E0",
"021 c #1EB4E0",
"022 c #22B6E0",
"023 c #23B6E0",
"024 c #26B7E0",
"025 c #27B7E1",
"026 c #2CB9E1",
"027 c #2EB9E1",
"028 c #30BBE2",
"029 c #35BCE2",
"030 c #35BCE3",
"031 c #37BCE2",
"032 c #39BDE3",
"033 c #3BBEE3",
"034 c #3DBEE3",
"035 c #3FBFE3",
"036 c #4DC4E6",
"037 c #4EC4E5",
"038 c #50C5E7",
"039 c #51C5E6",
"040 c #53C5E6",
"041 c #54C6E6",
"042 c #5AC8E7",
"043 c #61CBE9",
"044 c #63CAE8",
"045 c #63CBE9",
"046 c #64CBE9",
"047 c #67CCE9",
"048 c #6ACDE9",
"049 c #6BCDE9",
"050 c #6BCEEA",
"051 c #6DCEEA",
"052 c #6ECEEA",
"053 c #71D0EB",
"054 c #72D0EB",
"055 c #75D1EC",
"056 c #7AD3EC",
"057 c #7ED3EC",
"058 c #7DD4ED",
"059 c #7ED4ED",
"060 c #80D4EC",
"061 c #83D5ED",
"062 c #8CD8EE",
"063 c #8FDAEF",
"064 c #90D9EE",
"065 c #95DCF0",
"066 c #9DDEF1",
"067 c #9EDEF0",
"068 c #A9E2F3",
"069 c #AAE2F2",
"070 c #ABE3F3",
"071 c #ACE3F3",
"072 c #AFE4F4",
"073 c #B8E7F5",
"074 c #BBE8F5",
"075 c #BEE9F5",
"076 c #BFEAF6",
"077 c #C1EAF5",
"078 c #C1EAF6",
"079 c #C3EAF6",
"080 c #C3EBF6",
"081 c #C6EBF6",
"082 c #C7ECF7",
"083 c #CFEFF8",
"084 c #D2F0F8",
"085 c #D3F0F8",
"086 c #D5F0F8",
"087 c #D8F1F8",
"088 c #D8F2F9",
"089 c #DBF3FA",
"090 c #DCF2F9",
"091 c #DCF3FA",
"092 c #E0F4FA",
"093 c #E0F5FA",
"094 c #E5F5FA",
"095 c #EBF8FC",
"096 c #EEF8FB",
"097 c #EDF9FC",
"098 c #EFF9FC",
"099 c #F0F9FC",
"100 c #F0FAFD",
"101 c #F3FBFD",
"102 c #F7FBFD",
"103 c #FBFDFD",
"104 c #FAFDFE",
"105 c #FDFDFD",
"106 c #FDFEFE",
"107 c #FEFEFE",
"108 c #FEFFFF",
"109 c Gray100",
"110 c black",
"111 c black",
"112 c black",
"113 c black",
"114 c black",
"115 c black",
"116 c black",
"117 c black",
"118 c black",
"119 c black",
"120 c black",
"121 c black",
"122 c black",
"123 c black",
"124 c black",
"125 c black",
"126 c black",
"127 c black",
"128 c black",
"129 c black",
"130 c black",
"131 c black",
"132 c black",
"133 c black",
"134 c black",
"135 c black",
"136 c black",
"137 c black",
"138 c black",
"139 c black",
"140 c black",
"141 c black",
"142 c black",
"143 c black",
"144 c black",
"145 c black",
"146 c black",
"147 c black",
"148 c black",
"149 c black",
"150 c black",
"151 c black",
"152 c black",
"153 c black",
"154 c black",
"155 c black",
"156 c black",
"157 c black",
"158 c black",
"159 c black",
"160 c black",
"161 c black",
"162 c black",
"163 c black",
"164 c black",
"165 c black",
"166 c black",
"167 c black",
"168 c black",
"169 c black",
"170 c black",
"171 c black",
"172 c black",
"173 c black",
"174 c black",
"175 c black",
"176 c black",
"177 c black",
"178 c black",
"179 c black",
"180 c black",
"181 c black",
"182 c black",
"183 c black",
"184 c black",
"185 c black",
"186 c black",
"187 c black",
"188 c black",
"189 c black",
"190 c black",
"191 c black",
"192 c black",
"193 c black",
"194 c black",
"195 c black",
"196 c black",
"197 c black",
"198 c black",
"199 c black",
"200 c black",
"201 c black",
"202 c black",
"203 c black",
"204 c black",
"205 c black",
"206 c black",
"207 c black",
"208 c black",
"209 c black",
"210 c black",
"211 c black",
"212 c black",
"213 c black",
"214 c black",
"215 c black",
"216 c black",
"217 c black",
"218 c black",
"219 c black",
"220 c black",
"221 c black",
"222 c black",
"223 c black",
"224 c black",
"225 c black",
"226 c black",
"227 c black",
"228 c black",
"229 c black",
"230 c black",
"231 c black",
"232 c black",
"233 c black",
"234 c black",
"235 c black",
"236 c black",
"237 c black",
"238 c black",
"239 c black",
"240 c black",
"241 c black",
"242 c black",
"243 c black",
"244 c black",
"245 c black",
"246 c black",
"247 c black",
"248 c black",
"249 c black",
"250 c black",
"251 c black",
"252 c black",
"253 c black",
"254 c black",
"255 c black",
"005000000005000000005000000005000005000000000005000000005000000005000000",
"005000000005000000005000000005000005000000000005000000005000000005000000",
"005005005005005005005005005005005005005005005005005005005005005005005005",
"005000000005000000005000000005000005000000000010026034021000000005000000",
"005000000005000000005000000005001023035039069101099075082048000005000000",
"005005005005005005005005013056093108109109109100038005005055005005005005",
"005000000005000000005024087109105109105105105109105067011037003005000000",
"005000000005000000020094102107105109105105105109105105070040000005000000",
"005005005005005005073089097109106070045053084109109109109063005005005005",
"005000000005000031080086105108051005000000007074105105109092004005000000",
"005000000005000041071105105088001005000000000028105105109105033005000000",
"005000000005000040107105105095075076075075075078105105109105051005000000",
"005005005005012093109109109109109109109109109109109109109109059005005005",
"005000000005047105109105105083044046044044044046044044046044027005000000",
"005005005005084109109109109092006005005005005010022022022022006005005005",
"005000000025105064107105105109060005000000001065105105109090002005000000",
"005000000043096008072105105109105074049052079109105105107042000005000000",
"005005005058074005017091109109109109109109109109109109066005005005005005",
"005000000050077000005018081109105109105105105109103062006000000005000000",
"005000000016085061036051057054081104105105098068029000005000000005000000",
"005005005005009030032015005005005014022019009005005005005005005005005005",
"005000000005000000005000000005000005000000000005000000005000000005000000",
"005000000005000000005000000005000005000000000005000000005000000005000000",
"005005005005005005005005005005005005005005005005005005005005005005005005"
};
